<?xml version="1.0" encoding="utf-8"?>
<!-- Generator: Adobe Illustrator 18.0.0, SVG Export Plug-In . SVG Version: 6.00 Build 0)  -->
<!DOCTYPE svg PUBLIC "-//W3C//DTD SVG 1.1//EN" "http://www.w3.org/Graphics/SVG/1.1/DTD/svg11.dtd">
<svg xmlns="http://www.w3.org/2000/svg" xmlns:xlink="http://www.w3.org/1999/xlink" version="1.1" id="Слой_1" x="0px" y="0px" viewBox="253.8 -14.5 770.3 765.5" enable-background="new 253.8 -14.5 770.3 765.5" xml:space="preserve">
<path fill="#4BB7EE" stroke="" stroke-width="2" stroke-linecap="round" stroke-linejoin="round" stroke-miterlimit="10" d="  M449.9,512.1c-9.8-1.9-76.2-1-76.2-1c-16.7,0.9,6.5,9.3,6.5,9.3c-17.2,5.6,4.6,11.6,4.6,11.6c-17.7,8.4,11.6,12.1,11.6,12.1  c-3.3,12.5,57.1,5.1,57.1,5.1c19.5,5.6,34.8,1.9,34.8,1.9c-10.2,2.3,2.3,4.6,2.3,4.6c23.2,1.9,15.4,7.5,15.4,7.5  c-3.6,4.4-16.5,5.2-16.5,5.2c-21.2-1.1-63.1,20.1-63.1,20.1c-8.7-2.1-15.4,5.3-15.4,5.3c-3.4,1.1-26.9,25.1-26.9,25.1  c-26.3,24.3-50,39.1-50,39.1c-10.9,1.9-32.5-7-32.5-7c-7.2-3.4-11.3,0.9-11.3,0.9c2-1.2,6.4,1.5,6.4,1.5c-3.4,7.2,21.7,7.5,21.7,7.5  c10.6,1.4-7.3,8.7-7.3,8.7c-7.9,5.4-23.9,7.3-23.9,7.3c-7.8,1.1-11.7,6-11.7,6l-5.1,0c1.5,4.8,11.6,1,11.6,1  c2.9-1.6,12.4-3.6,12.4-3.6c6.5,0.6,4.9,2.8,4.9,2.8c-31.4,7.6-33.4,16.2-33.4,16.2s0,0.1-0.1,1.5c-0.1,1.4-6,3.7-6,3.7  c3,3.1,13.8-4.4,13.8-4.4c5-4.2,31.9-13.1,31.9-13.1c3.6,1.2,25.2-11.4,25.2-11.4c4.1,0.8,18.6-15.2,18.6-15.2l64.3-53.7  c10.2,0.4,15.6-7.5,15.6-7.5c6.4-4.1,16.5-7,16.5-7c7.1-0.8,37.7-5.2,37.7-5.2c5.8-2.3,26.4-2.9,26.4-2.9s16.6,0,17.5,3.7  c1.4,5.5-15.8,8.8-15.8,8.8c-16.3-0.5-61.3,23.2-61.3,23.2c-8.8-1.4-14.9,6.6-14.9,6.6c-3.3,1.4-24.6,27.3-24.6,27.3  c-24.2,26.5-46.5,43.2-46.5,43.2c-10.7,2.8-33-4.2-33-4.2c-7.4-2.8-11.2,1.9-11.2,1.9c1.9-1.4,6.5,0.9,6.5,0.9  c-2.8,7.4,22.3,5.6,22.3,5.6c10.7,0.5-6.5,9.3-6.5,9.3c-7.4,6-23.2,9.3-23.2,9.3c-7.7,1.7-11.2,7-11.2,7l-5.1,0.5  c1.9,4.6,11.6,0,11.6,0c2.8-1.9,12.1-4.6,12.1-4.6c6.5,0,4.3,2.3,4.3,2.3c-30.7,10.2-32.7,19-32.7,19s0,0.1,0,1.5  c0,1.4-4.8,4.2-4.8,4.2c3.3,2.8,13.8-5.6,13.8-5.6c4.6-4.6,30.9-15.8,30.9-15.8c3.7,0.9,24.3-13.5,24.3-13.5  c4.2,0.5,17.2-16.7,17.2-16.7l59.5-59c10.2-0.5,14.9-8.8,14.9-8.8c6-4.6,15.8-8.4,15.8-8.4c7-1.4,37.2-8.4,37.2-8.4  c5.6-2.8,26-5.1,26-5.1c21.8,3.3,35.3-7.9,35.3-7.9c6-5.1,17.7-7.4,17.7-7.4c11.2,4.2,43.2-6.5,43.2-6.5c-3.3,4.2-9.3,7-9.3,7  c8.8,0.5,26.5-9.8,26.5-9.8c16.7-8.4,40.4-0.5,40.4-0.5c10.2,13,30.7,17.7,30.7,17.7c30.2,22.8,55.6,17.4,55.6,17.4  c27.4,1.4,42.5-28.1,42.5-28.1c7-13.9,20.9-10.7,20.9-10.7c2.3,0,50.6,7.4,50.6,7.4l-4.6,1.4c8.8,1.9,18.6,3.7,18.6,3.7l-3.7,1.4  c9.3,2.8,27.9,3.3,27.9,3.3c37.2,13.9,99.9,26.9,99.9,26.9c-7.9-7.9-92.9-54.4-92.9-54.4c-5.1-7.4-16.7-13.9-16.7-13.9  c-26.5-22.3-78.1-20.3-78.1-20.3c-22.8-4.2-64.6,0.8-64.6,0.8c-25.1,0.9-16,4.8-16,4.8c-10,4.8-24.4,5.4-24.4,5.4  c-5.7,6.8,74.3-3.2,74.3-3.2c-19.3,2.2-33.4,36.1-33.4,36.1c-21.8,13.5-55.3-38.1-55.3-38.1c0-19-11.1-40.9-11.1-40.9  s24.6-75.6,71.3-118.5l48-37.8c0,0,22.4-12.2,10.2-55c0,0-3.2-37.1-15.4-57c0,0-35.8-87.7-44.8-60.2c0,0-5.1,13.4-1.3,21.1  c0,0-25-32-23.4,0c0,0,0.3,14.1,5.5,16c0,0-14.1-12.2-23.7-9.6c0,0-8.3,9,3.2,21.1l-26.9-9.6c0,0-16,1.9,0,19.8l3.2,3.8  c0,0-30.7-6.4-29.4,8.3c0,0-4.5,2.6-2.6,6.4c0,0-16,3.2-12.8,13.4c0,0-14.7,3.2-10.2,9.6c0,0-14.1,1.9-8.9,9.6c0,0-9.8,3.8-7.6,7  v-25.9c0,0,1-20.2-13.1-33.6c0,0-121.2-127.4-128.9-133.1c0,0-44.6-39.7-61.2-66.6c0,0-45.3-64-21.7,0c0,0-21.1-19.2-30-16.6  c0,0-12.1,1.3,32,46.7c0,0-49.9-29.4-57.6-28.8c0,0-1.9,13.4,33.3,32.6c0,0-46.1-19.6-55-18.4c0,0-5.8,6.2,11.5,16.2h-9.9  c0,0-4.8,3,13.8,13.9c0,0-14.1-1.7,8.3,17.5c0,0-10.2,6.8,14.1,26.7c0,0-17.3,3.7,9,29.3c0,0-13.4,5.1,14.7,28.8  c0,0-14.1,7.7,12.8,26.9c0,0-7.7,12.1,7,23c0,0-21.1,16,3.2,35.2c0,0-15.4,9.6-1.3,24.3c0,0-10.2,10.2,4.5,24.3  c0,0-7.7,14.1,8.3,26.2c0,0-10.9,7.7,3.8,22.4c0,0-13.4,11.5,7,29.4c0,0-17.9,17.3,10.2,39c0,0-8.7,9.5,1.9,25  c0,0-9.6,14.7,11.5,28.8c0,0-10.2,10.2,5.1,17.3c0,0-9,1.9,5.8,13.4L449.9,512.1z"/>
</svg>
